<?xml version="1.0" encoding="utf-8"?>
<!-- Generator: Adobe Illustrator 26.5.0, SVG Export Plug-In . SVG Version: 6.00 Build 0)  -->
<svg version="1.1" id="Layer_1" xmlns="http://www.w3.org/2000/svg" xmlns:xlink="http://www.w3.org/1999/xlink" x="0px" y="0px"
	 viewBox="0 0 65 65" style="enable-background:new 0 0 65 65;" xml:space="preserve">
<style type="text/css">
	.st0{fill:#FFFFFF;}
	.st1{fill:none;}
	.st2{fill:#EEEEEE;}
	.st3{fill:#040707;}
</style>
<g id="bg-color-black" transform="translate(-1098 -1179)">
	<g id="box">
		<rect x="1098" y="1179" class="st0" width="65" height="65"/>
	</g>
	<g id="icon">
		<g id="border" transform="translate(1127 1208)">
			<g>
				<path class="st1" d="M-9-12.5H16c1.9,0,3.4,1.5,3.4,3.4V16c0,1.9-1.5,3.4-3.4,3.4H-9c-1.9,0-3.4-1.5-3.4-3.4V-9
					C-12.5-10.9-10.9-12.5-9-12.5z"/>
			</g>
			<g>
				<path class="st2" d="M16,19.5H-9c-1.9,0-3.4-1.5-3.4-3.4V-9c0-1.9,1.5-3.4,3.4-3.4H16c1.9,0,3.4,1.5,3.4,3.4V16
					C19.5,17.9,17.9,19.5,16,19.5z M-9-10.2c-0.6,0-1.1,0.5-1.1,1.1V16c0,0.6,0.5,1.1,1.1,1.1H16c0.6,0,1.1-0.5,1.1-1.1V-9
					c0-0.6-0.5-1.1-1.1-1.1H-9z"/>
			</g>
		</g>
		<g id="swatch">
			<path class="st3" d="M1120.2,1200.1h20.5c0.6,0,1.1,0.5,1.1,1.1v20.5c0,0.6-0.5,1.1-1.1,1.1h-20.5c-0.6,0-1.1-0.5-1.1-1.1v-20.5
				C1119.1,1200.6,1119.6,1200.1,1120.2,1200.1z"/>
		</g>
	</g>
</g>
</svg>
