<?xml version="1.0" encoding="utf-8"?>
<!-- Generator: Adobe Illustrator 26.5.0, SVG Export Plug-In . SVG Version: 6.00 Build 0)  -->
<svg version="1.1" id="Layer_1" xmlns="http://www.w3.org/2000/svg" xmlns:xlink="http://www.w3.org/1999/xlink" x="0px" y="0px"
	 viewBox="0 0 65 65" style="enable-background:new 0 0 65 65;" xml:space="preserve">
<style type="text/css">
	.st0{fill:#FFFFFF;}
	.st1{fill:#2271B1;}
	.st2{fill:none;}
</style>
<g id="bg-image" transform="translate(-200 -1179)">
	<g id="box">
		<rect x="200" y="1179" class="st0" width="65" height="65"/>
	</g>
	<g id="icon">
		<g id="Path_1">
			<path class="st1" d="M241.6,1220.6h-20.5c-0.4,0-0.8-0.2-1-0.6c-0.2-0.4-0.2-0.8,0.1-1.2l4.6-6.8c0.2-0.3,0.5-0.5,0.8-0.5
				c0.3,0,0.7,0.1,0.9,0.3l1.5,1.5l6-6c0.2-0.2,0.6-0.4,0.9-0.3c0.3,0,0.7,0.2,0.8,0.5l6.8,11.4c0.2,0.4,0.2,0.8,0,1.1
				C242.4,1220.4,242,1220.6,241.6,1220.6z M223.2,1218.3h16.4l-5.1-8.4l-5.8,5.8c-0.4,0.4-1.2,0.4-1.6,0l-1.3-1.3L223.2,1218.3z"/>
		</g>
		<g id="Ellipse_7" transform="translate(239 1216)">
			<g>
				<circle class="st0" cx="-13.3" cy="-12.5" r="3.4"/>
			</g>
			<g>
				<path class="st1" d="M-13.3-9.1c-1.9,0-3.4-1.5-3.4-3.4s1.5-3.4,3.4-3.4s3.4,1.5,3.4,3.4S-11.5-9.1-13.3-9.1z M-13.3-13.6
					c-0.6,0-1.1,0.5-1.1,1.1c0,0.6,0.5,1.1,1.1,1.1c0.6,0,1.1-0.5,1.1-1.1C-12.2-13.1-12.7-13.6-13.3-13.6z"/>
			</g>
		</g>
		<g id="Rectangle_104" transform="translate(227 1208)">
			<g>
				<path class="st2" d="M-8.2-12.5h25.1c1.9,0,3.4,1.5,3.4,3.4V16c0,1.9-1.5,3.4-3.4,3.4H-8.2c-1.9,0-3.4-1.5-3.4-3.4V-9
					C-11.6-10.9-10.1-12.5-8.2-12.5z"/>
			</g>
			<g>
				<path class="st1" d="M16.9,19.5H-8.2c-1.9,0-3.4-1.5-3.4-3.4V-9c0-1.9,1.5-3.4,3.4-3.4h25.1c1.9,0,3.4,1.5,3.4,3.4V16
					C20.3,17.9,18.8,19.5,16.9,19.5z M-8.2-10.2c-0.6,0-1.1,0.5-1.1,1.1V16c0,0.6,0.5,1.1,1.1,1.1h25.1c0.6,0,1.1-0.5,1.1-1.1V-9
					c0-0.6-0.5-1.1-1.1-1.1H-8.2z"/>
			</g>
		</g>
	</g>
</g>
</svg>
