<?xml version="1.0" encoding="utf-8"?>
<!-- Generator: Adobe Illustrator 26.5.0, SVG Export Plug-In . SVG Version: 6.00 Build 0)  -->
<svg version="1.1" id="Layer_1" xmlns="http://www.w3.org/2000/svg" xmlns:xlink="http://www.w3.org/1999/xlink" x="0px" y="0px"
	 viewBox="0 0 65 65" style="enable-background:new 0 0 65 65;" xml:space="preserve">
<style type="text/css">
	.st0{fill:#FFFFFF;}
	.st1{fill:none;}
	.st2{fill:#2271B1;}
</style>
<g id="bg-none" transform="translate(-48 -1179)">
	<g id="box">
		<rect x="48" y="1179" class="st0" width="65" height="65"/>
	</g>
	<g id="icon">
		<g id="Rectangle_102" transform="translate(76 1208)">
			<g>
				<path class="st1" d="M-8.6-12.5h25.1c1.9,0,3.4,1.5,3.4,3.4V16c0,1.9-1.5,3.4-3.4,3.4H-8.6c-1.9,0-3.4-1.5-3.4-3.4V-9
					C-12-10.9-10.5-12.5-8.6-12.5z"/>
			</g>
			<g>
				<path class="st2" d="M16.5,19.5H-8.6c-1.9,0-3.4-1.5-3.4-3.4V-9c0-1.9,1.5-3.4,3.4-3.4h25.1c1.9,0,3.4,1.5,3.4,3.4V16
					C19.9,17.9,18.4,19.5,16.5,19.5z M-8.6-10.2c-0.6,0-1.1,0.5-1.1,1.1V16c0,0.6,0.5,1.1,1.1,1.1h25.1c0.6,0,1.1-0.5,1.1-1.1V-9
					c0-0.6-0.5-1.1-1.1-1.1H-8.6z"/>
			</g>
		</g>
		<g id="Rectangle_103" transform="translate(74.828 1203) rotate(45)">
			<g>
				<path class="st2" d="M-14.3,0.9h48.2C34.5,0.9,35,1.4,35,2l0,0c0,0.6-0.5,1.1-1.1,1.1h-48.2c-0.6,0-1.1-0.5-1.1-1.1l0,0
					C-15.4,1.4-14.9,0.9-14.3,0.9z"/>
			</g>
			<g>
				<path class="st0" d="M37.9,6c-1,1-2.5,1.7-4,1.7l-48.2,0c-1.5,0-3-0.6-4-1.7C-19.4,5-20,3.5-20,2c0-1.5,0.6-3,1.7-4
					s2.5-1.7,4-1.7l48.2,0c3.1,0,5.7,2.6,5.7,5.7C39.6,3.6,38.9,5,37.9,6z M-15.1,1.2c-0.2,0.2-0.3,0.5-0.3,0.8
					c0,0.4,0.2,0.7,0.3,0.8c0.1,0.1,0.4,0.3,0.8,0.3l48.2,0C34.5,3.1,35,2.6,35,2c0-0.6-0.5-1.1-1.1-1.1l-48.2,0
					C-14.6,0.9-14.9,1-15.1,1.2z"/>
			</g>
		</g>
	</g>
</g>
</svg>
