<?xml version="1.0" encoding="utf-8"?>
<!-- Generator: Adobe Illustrator 26.5.0, SVG Export Plug-In . SVG Version: 6.00 Build 0)  -->
<svg version="1.1" id="Layer_1" xmlns="http://www.w3.org/2000/svg" xmlns:xlink="http://www.w3.org/1999/xlink" x="0px" y="0px"
	 viewBox="0 0 65 65" style="enable-background:new 0 0 65 65;" xml:space="preserve">
<style type="text/css">
	.st0{fill:#FFFFFF;}
	.st1{fill:#DEEAF3;}
	.st2{fill:#2271B1;}
</style>
<g id="padding-large" transform="translate(-498 -1428)">
	<g id="box">
		<rect x="498" y="1428" class="st0" width="65" height="65"/>
	</g>
	<g id="icon">
		<g id="Rectangle_175" transform="translate(523 1453)">
			<g>
				<path class="st1" d="M-7.3-10.7h29.6c1.9,0,3.4,1.5,3.4,3.4v29.6c0,1.9-1.5,3.4-3.4,3.4H-7.3c-1.9,0-3.4-1.5-3.4-3.4V-7.3
					C-10.7-9.2-9.2-10.7-7.3-10.7z"/>
			</g>
			<g>
				<path class="st2" d="M22.3,25.7H-7.3c-1.9,0-3.4-1.5-3.4-3.4V-7.3c0-1.9,1.5-3.4,3.4-3.4h29.6c1.9,0,3.4,1.5,3.4,3.4v29.6
					C25.7,24.2,24.2,25.7,22.3,25.7z M-7.3-8.5C-8-8.5-8.5-8-8.5-7.3v29.6c0,0.6,0.5,1.1,1.1,1.1h29.6c0.6,0,1.1-0.5,1.1-1.1V-7.3
					c0-0.6-0.5-1.1-1.1-1.1H-7.3z"/>
			</g>
		</g>
		<g id="Rectangle_197">
			<rect x="521.4" y="1451.4" class="st0" width="18.2" height="18.2"/>
		</g>
		<g id="Ellipse_474">
			<circle class="st2" cx="521.9" cy="1451.9" r="1.1"/>
		</g>
		<g id="Ellipse_444">
			<circle class="st2" cx="521.4" cy="1455.9" r="1.1"/>
		</g>
		<g id="Ellipse_446">
			<circle class="st2" cx="521.4" cy="1460.5" r="1.1"/>
		</g>
		<g id="Ellipse_448">
			<circle class="st2" cx="521.4" cy="1465.1" r="1.1"/>
		</g>
		<g id="Ellipse_450">
			<circle class="st2" cx="521.9" cy="1469.1" r="1.1"/>
		</g>
		<g id="Ellipse_476">
			<circle class="st2" cx="525.9" cy="1451.4" r="1.1"/>
		</g>
		<g id="Ellipse_396">
			<circle class="st2" cx="525.9" cy="1469.6" r="1.1"/>
		</g>
		<g id="Ellipse_478">
			<circle class="st2" cx="530.5" cy="1451.4" r="1.1"/>
		</g>
		<g id="Ellipse_358">
			<circle class="st2" cx="530.5" cy="1469.6" r="1.1"/>
		</g>
		<g id="Ellipse_480">
			<circle class="st2" cx="535.1" cy="1451.4" r="1.1"/>
		</g>
		<g id="Ellipse_366">
			<circle class="st2" cx="535.1" cy="1469.6" r="1.1"/>
		</g>
		<g id="Ellipse_482">
			<circle class="st2" cx="539.1" cy="1451.9" r="1.1"/>
		</g>
		<g id="Ellipse_468">
			<circle class="st2" cx="539.6" cy="1455.9" r="1.1"/>
		</g>
		<g id="Ellipse_428">
			<circle class="st2" cx="539.6" cy="1460.5" r="1.1"/>
		</g>
		<g id="Ellipse_390">
			<circle class="st2" cx="539.6" cy="1465.1" r="1.1"/>
		</g>
		<g id="Ellipse_373">
			<circle class="st2" cx="539.1" cy="1469.1" r="1.1"/>
		</g>
	</g>
</g>
</svg>
