<?xml version="1.0" encoding="utf-8"?>
<!-- Generator: Adobe Illustrator 26.5.0, SVG Export Plug-In . SVG Version: 6.00 Build 0)  -->
<svg version="1.1" id="Layer_1" xmlns="http://www.w3.org/2000/svg" xmlns:xlink="http://www.w3.org/1999/xlink" x="0px" y="0px"
	 viewBox="0 0 65 65" style="enable-background:new 0 0 65 65;" xml:space="preserve">
<style type="text/css">
	.st0{fill:#FFFFFF;}
	.st1{fill:#DEEAF3;}
	.st2{fill:#2271B1;}
</style>
<g id="padding-left-medium" transform="translate(-348 -2028)">
	<g id="box">
		<rect x="348" y="2028" class="st0" width="65" height="65"/>
	</g>
	<g id="icon">
		<g id="Rectangle_265" transform="translate(373 2053)">
			<g>
				<path class="st1" d="M-7.3-10.7h29.6c1.9,0,3.4,1.5,3.4,3.4v29.6c0,1.9-1.5,3.4-3.4,3.4H-7.3c-1.9,0-3.4-1.5-3.4-3.4V-7.3
					C-10.7-9.2-9.2-10.7-7.3-10.7z"/>
			</g>
			<g>
				<path class="st2" d="M22.3,25.7H-7.3c-1.9,0-3.4-1.5-3.4-3.4V-7.3c0-1.9,1.5-3.4,3.4-3.4h29.6c1.9,0,3.4,1.5,3.4,3.4v29.6
					C25.7,24.2,24.2,25.7,22.3,25.7z M-7.3-8.5C-8-8.5-8.5-8-8.5-7.3v29.6c0,0.6,0.5,1.1,1.1,1.1h29.6c0.6,0,1.1-0.5,1.1-1.1V-7.3
					c0-0.6-0.5-1.1-1.1-1.1H-7.3z"/>
			</g>
		</g>
		<g id="Rectangle_266">
			<path class="st0" d="M369.1,2044.5h26.2c0.6,0,1.1,0.5,1.1,1.1v29.6c0,0.6-0.5,1.1-1.1,1.1h-26.2l0,0V2044.5L369.1,2044.5z"/>
		</g>
		<g id="Ellipse_855">
			<circle class="st2" cx="369.1" cy="2046.8" r="1.1"/>
		</g>
		<g id="Ellipse_852">
			<circle class="st2" cx="369.1" cy="2051.4" r="1.1"/>
		</g>
		<g id="Ellipse_849">
			<circle class="st2" cx="369.1" cy="2055.9" r="1.1"/>
		</g>
		<g id="Ellipse_843">
			<circle class="st2" cx="369.1" cy="2060.5" r="1.1"/>
		</g>
		<g id="Ellipse_846">
			<circle class="st2" cx="369.1" cy="2065.1" r="1.1"/>
		</g>
		<g id="Ellipse_847">
			<circle class="st2" cx="369.1" cy="2069.6" r="1.1"/>
		</g>
		<g id="Ellipse_848">
			<circle class="st2" cx="369.1" cy="2074.2" r="1.1"/>
		</g>
	</g>
</g>
</svg>
