<?xml version="1.0" encoding="utf-8"?>
<!-- Generator: Adobe Illustrator 26.5.0, SVG Export Plug-In . SVG Version: 6.00 Build 0)  -->
<svg version="1.1" id="Layer_1" xmlns="http://www.w3.org/2000/svg" xmlns:xlink="http://www.w3.org/1999/xlink" x="0px" y="0px"
	 viewBox="0 0 65 65" style="enable-background:new 0 0 65 65;" xml:space="preserve">
<style type="text/css">
	.st0{fill:#FFFFFF;}
	.st1{fill:#DEEAF3;}
	.st2{fill:#2271B1;}
</style>
<g id="padding-top-medium" transform="translate(-348 -1578)">
	<g id="box">
		<rect x="348" y="1578" class="st0" width="65" height="65"/>
	</g>
	<g id="icon">
		<g id="Rectangle_204" transform="translate(373 1603)">
			<g>
				<path class="st1" d="M-7.3-10.7h29.6c1.9,0,3.4,1.5,3.4,3.4v29.6c0,1.9-1.5,3.4-3.4,3.4H-7.3c-1.9,0-3.4-1.5-3.4-3.4V-7.3
					C-10.7-9.2-9.2-10.7-7.3-10.7z"/>
			</g>
			<g>
				<path class="st2" d="M22.3,25.7H-7.3c-1.9,0-3.4-1.5-3.4-3.4V-7.3c0-1.9,1.5-3.4,3.4-3.4h29.6c1.9,0,3.4,1.5,3.4,3.4v29.6
					C25.7,24.2,24.2,25.7,22.3,25.7z M-7.3-8.5C-8-8.5-8.5-8-8.5-7.3v29.6c0,0.6,0.5,1.1,1.1,1.1h29.6c0.6,0,1.1-0.5,1.1-1.1V-7.3
					c0-0.6-0.5-1.1-1.1-1.1H-7.3z"/>
			</g>
		</g>
		<g id="Rectangle_208">
			<path class="st0" d="M364.5,1599.1h31.9l0,0v26.2c0,0.6-0.5,1.1-1.1,1.1h-29.6c-0.6,0-1.1-0.5-1.1-1.1V1599.1L364.5,1599.1z"/>
		</g>
		<g id="Ellipse_688">
			<circle class="st2" cx="371.4" cy="1599.1" r="1.1"/>
		</g>
		<g id="Ellipse_707">
			<circle class="st2" cx="366.8" cy="1599.1" r="1.1"/>
		</g>
		<g id="Ellipse_690">
			<circle class="st2" cx="375.9" cy="1599.1" r="1.1"/>
		</g>
		<g id="Ellipse_692">
			<circle class="st2" cx="380.5" cy="1599.1" r="1.1"/>
		</g>
		<g id="Ellipse_694">
			<circle class="st2" cx="385.1" cy="1599.1" r="1.1"/>
		</g>
		<g id="Ellipse_696">
			<circle class="st2" cx="389.6" cy="1599.1" r="1.1"/>
		</g>
		<g id="Ellipse_698">
			<circle class="st2" cx="394.2" cy="1599.1" r="1.1"/>
		</g>
	</g>
</g>
</svg>
