<svg xmlns="http://www.w3.org/2000/svg" xmlns:xlink="http://www.w3.org/1999/xlink" width="114" height="114" viewBox="0 0 114 114">
  <defs>
    <clipPath id="clip-path">
      <rect id="box" width="114" height="114" transform="translate(50 1428)" fill="#fff"/>
    </clipPath>
  </defs>
  <g id="padding-inherit" transform="translate(-50 -1428)">
    <g id="Mask_Group_1" data-name="Mask Group 1" clip-path="url(#clip-path)">
      <path id="primary" d="M50.778,49.682a10.622,10.622,0,0,1,14.81.9A10.8,10.8,0,0,1,68.311,56.9a10.456,10.456,0,0,1-3.266,8.508,10.622,10.622,0,0,1-14.836-.183L35.173,50.195a10.622,10.622,0,1,0-.57,15.548" transform="translate(64.46 1416.658)" fill="none" stroke="#2271b1" stroke-linecap="round" stroke-linejoin="round" stroke-width="6.39"/>
    </g>
    <path id="Path_30" data-name="Path 30" d="M-37.443-13.146a1.5,1.5,0,0,0-1.533-1.428,1.554,1.554,0,0,0-1.533,1.428V-1.323A1.539,1.539,0,0,0-38.976.105a1.5,1.5,0,0,0,1.533-1.428Zm15.12,0a1.5,1.5,0,0,0-1.533-1.428,1.539,1.539,0,0,0-1.533,1.428v7.329L-29.778-13.5a1.781,1.781,0,0,0-1.7-1.071h-.273A1.5,1.5,0,0,0-33.159-13V-1.323A1.539,1.539,0,0,0-31.626.105a1.5,1.5,0,0,0,1.533-1.428V-8.757L-25.6-.945A1.73,1.73,0,0,0-23.961.105h.273a1.46,1.46,0,0,0,1.365-1.533Zm15.561,0a1.5,1.5,0,0,0-1.533-1.428,1.554,1.554,0,0,0-1.533,1.428v4.578h-5.145v-4.578a1.5,1.5,0,0,0-1.533-1.428,1.554,1.554,0,0,0-1.533,1.428V-1.323A1.539,1.539,0,0,0-16.506.105a1.5,1.5,0,0,0,1.533-1.428V-5.817h5.145v4.494A1.539,1.539,0,0,0-8.295.105,1.5,1.5,0,0,0-6.762-1.323Zm5.523-1.323a1.214,1.214,0,0,0-1.218,1.3V-1.3A1.214,1.214,0,0,0-1.239,0H5.628a1.354,1.354,0,0,0,1.26-1.344,1.311,1.311,0,0,0-1.26-1.344H.609V-5.8H4.788a1.334,1.334,0,0,0,1.26-1.323,1.292,1.292,0,0,0-1.26-1.323H.609V-11.76h4.83A1.354,1.354,0,0,0,6.7-13.1a1.316,1.316,0,0,0-1.26-1.365ZM16.317-11.76A1.91,1.91,0,0,1,18.06-9.723a1.924,1.924,0,0,1-1.827,2.037H13.482V-11.76Zm4.809,1.953a4.543,4.543,0,0,0-4.809-4.662H11.886a1.474,1.474,0,0,0-1.47,1.575V-1.323A1.539,1.539,0,0,0,11.949.105a1.5,1.5,0,0,0,1.533-1.428V-5.1h1.407L17.661-.525a1.5,1.5,0,0,0,2,.42,1.463,1.463,0,0,0,.567-2L17.871-5.481A4.489,4.489,0,0,0,21.126-9.807Zm6.615-3.339a1.5,1.5,0,0,0-1.533-1.428,1.554,1.554,0,0,0-1.533,1.428V-1.323A1.539,1.539,0,0,0,26.208.105a1.5,1.5,0,0,0,1.533-1.428ZM40.572-11.76a1.37,1.37,0,0,0,1.26-1.344,1.316,1.316,0,0,0-1.26-1.365h-8.61A1.316,1.316,0,0,0,30.7-13.1a1.37,1.37,0,0,0,1.26,1.344h2.772V-1.323A1.539,1.539,0,0,0,36.267.105,1.5,1.5,0,0,0,37.8-1.323V-11.76Z" transform="translate(107 1529)" fill="#444"/>
  </g>
</svg>
