<?xml version="1.0" encoding="utf-8"?>
<!-- Generator: Adobe Illustrator 26.5.0, SVG Export Plug-In . SVG Version: 6.00 Build 0)  -->
<svg version="1.1" id="Layer_1" xmlns="http://www.w3.org/2000/svg" xmlns:xlink="http://www.w3.org/1999/xlink" x="0px" y="0px"
	 viewBox="0 0 65 65" style="enable-background:new 0 0 65 65;" xml:space="preserve">
<style type="text/css">
	.st0{fill:#FFFFFF;}
	.st1{fill:#DEEAF3;}
	.st2{fill:#2271B1;}
</style>
<g id="padding-extra-large" transform="translate(-648 -1428)">
	<g id="box">
		<rect x="648" y="1428" class="st0" width="65" height="65"/>
	</g>
	<g id="icon">
		<g id="Rectangle_177" transform="translate(673 1453)">
			<g>
				<path class="st1" d="M-7.3-10.7h29.6c1.9,0,3.4,1.5,3.4,3.4v29.6c0,1.9-1.5,3.4-3.4,3.4H-7.3c-1.9,0-3.4-1.5-3.4-3.4V-7.3
					C-10.7-9.2-9.2-10.7-7.3-10.7z"/>
			</g>
			<g>
				<path class="st2" d="M22.3,25.7H-7.3c-1.9,0-3.4-1.5-3.4-3.4V-7.3c0-1.9,1.5-3.4,3.4-3.4h29.6c1.9,0,3.4,1.5,3.4,3.4v29.6
					C25.7,24.2,24.2,25.7,22.3,25.7z M-7.3-8.5C-8-8.5-8.5-8-8.5-7.3v29.6c0,0.6,0.5,1.1,1.1,1.1h29.6c0.6,0,1.1-0.5,1.1-1.1V-7.3
					c0-0.6-0.5-1.1-1.1-1.1H-7.3z"/>
			</g>
		</g>
		<g id="Rectangle_198">
			<rect x="673.7" y="1453.7" class="st0" width="13.7" height="13.7"/>
		</g>
		<g id="Ellipse_622">
			<circle class="st2" cx="674.2" cy="1454.2" r="1.1"/>
		</g>
		<g id="Ellipse_576">
			<circle class="st2" cx="673.7" cy="1458.2" r="1.1"/>
		</g>
		<g id="Ellipse_578">
			<circle class="st2" cx="673.7" cy="1462.8" r="1.1"/>
		</g>
		<g id="Ellipse_580">
			<circle class="st2" cx="674.2" cy="1466.8" r="1.1"/>
		</g>
		<g id="Ellipse_626">
			<circle class="st2" cx="678.2" cy="1453.7" r="1.1"/>
		</g>
		<g id="Ellipse_551">
			<circle class="st2" cx="678.2" cy="1467.3" r="1.1"/>
		</g>
		<g id="Ellipse_630">
			<circle class="st2" cx="682.8" cy="1453.7" r="1.1"/>
		</g>
		<g id="Ellipse_530">
			<circle class="st2" cx="682.8" cy="1467.3" r="1.1"/>
		</g>
		<g id="Ellipse_634">
			<circle class="st2" cx="686.8" cy="1454.2" r="1.1"/>
		</g>
		<g id="Ellipse_594">
			<circle class="st2" cx="687.3" cy="1458.2" r="1.1"/>
		</g>
		<g id="Ellipse_572">
			<circle class="st2" cx="687.3" cy="1462.8" r="1.1"/>
		</g>
		<g id="Ellipse_538">
			<circle class="st2" cx="686.8" cy="1466.8" r="1.1"/>
		</g>
	</g>
</g>
</svg>
