<svg xmlns="http://www.w3.org/2000/svg" width="114" height="114" viewBox="0 0 114 114">
  <g id="padding-default" transform="translate(-50 -1428)">
    <rect id="box" width="114" height="114" transform="translate(50 1428)" fill="#fff"/>
    <path id="icon" d="M18.031,43.962H17.5a1.5,1.5,0,0,1-1.5-1.5v-8A1.5,1.5,0,0,1,18.562,33.4l2.6,2.6a14,14,0,1,1-.062,19.86A2,2,0,0,1,23.93,53.03a10,10,0,1,0,.062-14.2L26.561,41.4A1.5,1.5,0,0,1,25.5,43.962Z" transform="translate(77 1431.038)" fill="#444"/>
    <path id="Path_3" data-name="Path 3" d="M-41.191-11.76h2.6c2.31,0,3.465,2.163,3.465,4.557,0,2.373-1.155,4.515-3.465,4.515h-2.6ZM-38.588,0c4.158,0,6.531-3.108,6.531-7.2,0-4.116-2.373-7.266-6.531-7.266H-43.04a1.214,1.214,0,0,0-1.218,1.3V-1.3A1.213,1.213,0,0,0-43.04,0Zm11.382-14.469a1.214,1.214,0,0,0-1.218,1.3V-1.3A1.214,1.214,0,0,0-27.205,0h6.867a1.354,1.354,0,0,0,1.26-1.344,1.311,1.311,0,0,0-1.26-1.344h-5.019V-5.8h4.179a1.334,1.334,0,0,0,1.26-1.323,1.292,1.292,0,0,0-1.26-1.323h-4.179V-11.76h4.83a1.354,1.354,0,0,0,1.26-1.344,1.316,1.316,0,0,0-1.26-1.365Zm12.894,0a1.214,1.214,0,0,0-1.218,1.3V-1.323A1.539,1.539,0,0,0-14,.105a1.5,1.5,0,0,0,1.533-1.428V-5.8h3.57a1.334,1.334,0,0,0,1.26-1.323,1.292,1.292,0,0,0-1.26-1.323h-3.57V-11.76h4.809A1.369,1.369,0,0,0-6.394-13.1a1.316,1.316,0,0,0-1.26-1.365ZM3.455-3.423,4.442-.777a1.544,1.544,0,0,0,1.932.8A1.563,1.563,0,0,0,7.3-1.89L3.119-13.146A2.068,2.068,0,0,0,1.04-14.574H.914a2.068,2.068,0,0,0-2.079,1.428L-5.344-1.89A1.563,1.563,0,0,0-4.42.021a1.544,1.544,0,0,0,1.932-.8L-1.5-3.423ZM-.493-6.09l1.47-5.04,1.47,5.04ZM15.74.189a5.389,5.389,0,0,0,5.628-5.376v-7.959a1.554,1.554,0,0,0-1.533-1.428A1.5,1.5,0,0,0,18.3-13.146v7.959a2.5,2.5,0,0,1-2.52,2.478A2.512,2.512,0,0,1,13.22-5.187v-7.959a1.5,1.5,0,0,0-1.533-1.428,1.554,1.554,0,0,0-1.533,1.428v7.959A5.389,5.389,0,0,0,15.782.189ZM28.655-13.146a1.5,1.5,0,0,0-1.533-1.428,1.554,1.554,0,0,0-1.533,1.428V-1.3A1.2,1.2,0,0,0,26.807,0h6.027a1.369,1.369,0,0,0,1.26-1.344,1.311,1.311,0,0,0-1.26-1.344H28.655ZM44.363-11.76a1.37,1.37,0,0,0,1.26-1.344,1.316,1.316,0,0,0-1.26-1.365h-8.61a1.316,1.316,0,0,0-1.26,1.365,1.37,1.37,0,0,0,1.26,1.344h2.772V-1.323A1.539,1.539,0,0,0,40.058.105a1.5,1.5,0,0,0,1.533-1.428V-11.76Z" transform="translate(107 1530)" fill="#444"/>
  </g>
</svg>
