<?xml version="1.0" encoding="utf-8"?>
<!-- Generator: Adobe Illustrator 26.5.0, SVG Export Plug-In . SVG Version: 6.00 Build 0)  -->
<svg version="1.1" id="Layer_1" xmlns="http://www.w3.org/2000/svg" xmlns:xlink="http://www.w3.org/1999/xlink" x="0px" y="0px"
	 viewBox="0 0 65 65" style="enable-background:new 0 0 65 65;" xml:space="preserve">
<style type="text/css">
	.st0{fill:#FFFFFF;}
	.st1{fill:#DEEAF3;}
	.st2{fill:#2271B1;}
</style>
<g id="padding-medium" transform="translate(-348 -1428)">
	<g id="box">
		<rect x="348" y="1428" class="st0" width="65" height="65"/>
	</g>
	<g id="icon">
		<g id="Rectangle_173" transform="translate(373 1453)">
			<g>
				<path class="st1" d="M-7.3-10.7h29.6c1.9,0,3.4,1.5,3.4,3.4v29.6c0,1.9-1.5,3.4-3.4,3.4H-7.3c-1.9,0-3.4-1.5-3.4-3.4V-7.3
					C-10.7-9.2-9.2-10.7-7.3-10.7z"/>
			</g>
			<g>
				<path class="st2" d="M22.3,25.7H-7.3c-1.9,0-3.4-1.5-3.4-3.4V-7.3c0-1.9,1.5-3.4,3.4-3.4h29.6c1.9,0,3.4,1.5,3.4,3.4v29.6
					C25.7,24.2,24.2,25.7,22.3,25.7z M-7.3-8.5C-8-8.5-8.5-8-8.5-7.3v29.6c0,0.6,0.5,1.1,1.1,1.1h29.6c0.6,0,1.1-0.5,1.1-1.1V-7.3
					c0-0.6-0.5-1.1-1.1-1.1H-7.3z"/>
			</g>
		</g>
		<g id="Rectangle_196">
			<rect x="369.1" y="1449.1" class="st0" width="22.8" height="22.8"/>
		</g>
		<g id="Ellipse_262">
			<circle class="st2" cx="369.7" cy="1449.7" r="1.1"/>
		</g>
		<g id="Ellipse_264">
			<circle class="st2" cx="369.1" cy="1453.7" r="1.1"/>
		</g>
		<g id="Ellipse_266">
			<circle class="st2" cx="369.1" cy="1458.2" r="1.1"/>
		</g>
		<g id="Ellipse_268">
			<circle class="st2" cx="369.1" cy="1462.8" r="1.1"/>
		</g>
		<g id="Ellipse_270">
			<circle class="st2" cx="369.1" cy="1467.3" r="1.1"/>
		</g>
		<g id="Ellipse_272">
			<circle class="st2" cx="369.7" cy="1471.3" r="1.1"/>
		</g>
		<g id="Ellipse_288">
			<circle class="st2" cx="373.7" cy="1449.1" r="1.1"/>
		</g>
		<g id="Ellipse_298">
			<circle class="st2" cx="373.7" cy="1471.9" r="1.1"/>
		</g>
		<g id="Ellipse_314">
			<circle class="st2" cx="378.2" cy="1449.1" r="1.1"/>
		</g>
		<g id="Ellipse_220">
			<circle class="st2" cx="378.2" cy="1471.9" r="1.1"/>
		</g>
		<g id="Ellipse_324">
			<circle class="st2" cx="382.8" cy="1449.1" r="1.1"/>
		</g>
		<g id="Ellipse_236">
			<circle class="st2" cx="382.8" cy="1471.9" r="1.1"/>
		</g>
		<g id="Ellipse_334">
			<circle class="st2" cx="387.3" cy="1449.1" r="1.1"/>
		</g>
		<g id="Ellipse_194">
			<circle class="st2" cx="387.3" cy="1471.9" r="1.1"/>
		</g>
		<g id="Ellipse_344">
			<circle class="st2" cx="391.3" cy="1449.7" r="1.1"/>
		</g>
		<g id="Ellipse_346">
			<circle class="st2" cx="391.9" cy="1453.7" r="1.1"/>
		</g>
		<g id="Ellipse_244">
			<circle class="st2" cx="391.9" cy="1458.2" r="1.1"/>
		</g>
		<g id="Ellipse_202">
			<circle class="st2" cx="391.9" cy="1462.8" r="1.1"/>
		</g>
		<g id="Ellipse_204">
			<circle class="st2" cx="391.9" cy="1467.3" r="1.1"/>
		</g>
		<g id="Ellipse_206">
			<circle class="st2" cx="391.3" cy="1471.3" r="1.1"/>
		</g>
	</g>
</g>
</svg>
