<svg xmlns="http://www.w3.org/2000/svg" width="114" height="114" viewBox="0 0 114 114">
  <g id="col-6" transform="translate(-948 -282)">
    <rect id="box" width="114" height="114" transform="translate(948 282)" fill="#fff"/>
    <g id="icon">
      <g id="Rectangle_383" data-name="Rectangle 383" transform="translate(973 294)" fill="rgba(34,113,177,0.15)" stroke="#2271b1" stroke-width="4">
        <rect width="64" height="64" rx="6" stroke="none"/>
        <rect x="2" y="2" width="60" height="60" rx="4" fill="none"/>
      </g>
      <g id="Rectangle_384" data-name="Rectangle 384" transform="translate(991 298)" fill="#fff" stroke="#2271b1" stroke-width="2">
        <rect width="28" height="56" stroke="none"/>
        <rect x="-1" y="-1" width="30" height="58" fill="none"/>
      </g>
    </g>
    <path id="Path_8" data-name="Path 8" d="M-13.723-10.815a1.419,1.419,0,0,0,1.911.021,1.313,1.313,0,0,0,.042-1.89,4.27,4.27,0,0,0-3.36-1.344C-20.3-14.2-21.031-8.841-20.7-4.6A4.918,4.918,0,0,0-15.76.189c3,0,5-1.953,5-4.6a4.22,4.22,0,0,0-4.1-4.326c-1.932,0-2.793.987-2.982,1.6v-.336c-.021-1.806.735-3.8,2.6-3.8A2.515,2.515,0,0,1-13.723-10.815Zm-.084,6.405A1.82,1.82,0,0,1-15.613-2.6,1.82,1.82,0,0,1-17.419-4.41a1.82,1.82,0,0,1,1.806-1.806A1.82,1.82,0,0,1-13.807-4.41ZM-.115-13.083a.975.975,0,0,0-.525-1.281,1,1,0,0,0-1.323.378l-6.048,12.6A1.032,1.032,0,0,0-7.465-.105,1,1,0,0,0-6.122-.5Zm2.94.9a1.14,1.14,0,0,0-.462,1.554,1.186,1.186,0,0,0,1.512.588l.945-.4V-1.26A1.487,1.487,0,0,0,6.29.105,1.442,1.442,0,0,0,7.76-1.26V-13.377a.654.654,0,0,0-.651-.651H7.067a1.732,1.732,0,0,0-.714.168ZM14.269-10a1.856,1.856,0,0,1,1.764-1.218c1.092,0,1.722.63,1.722,1.365A2.8,2.8,0,0,1,17.021-8.3l-5,6.195a1.8,1.8,0,0,0-.441,1.113A.9.9,0,0,0,12.526,0h7.014a1.381,1.381,0,0,0,1.281-1.386,1.352,1.352,0,0,0-1.281-1.386h-3.4l3.108-3.591A5.6,5.6,0,0,0,20.7-9.849,4.265,4.265,0,0,0,16.2-14.028a4.557,4.557,0,0,0-4.536,3.171,1.309,1.309,0,0,0,.819,1.722A1.458,1.458,0,0,0,14.269-10Z" transform="translate(1005 384)" fill="#444"/>
  </g>
</svg>
