<svg xmlns="http://www.w3.org/2000/svg" xmlns:xlink="http://www.w3.org/1999/xlink" width="114" height="114" viewBox="0 0 114 114">
  <defs>
    <clipPath id="clip-path">
      <rect id="box" width="114" height="114" transform="translate(798 132)" fill="#fff"/>
    </clipPath>
  </defs>
  <g id="col-custom" transform="translate(-798 -132)">
    <g id="Mask_Group_2" data-name="Mask Group 2" clip-path="url(#clip-path)">
      <path id="setting-gear-cogwheel-svgrepo-com" d="M48.636,12.41l-.006,0A4.174,4.174,0,0,1,42.37,8.8V8.792a4.4,4.4,0,0,0-4.4-4.4H27.988a4.4,4.4,0,0,0-4.4,4.4V8.8a4.174,4.174,0,0,1-6.261,3.614l-.006,0A4.4,4.4,0,0,0,11.3,14.022c-1.386,2.4-3.6,6.238-4.989,8.641a4.4,4.4,0,0,0,1.612,6.015l.006,0a4.173,4.173,0,0,1,0,7.228l-.006,0a4.4,4.4,0,0,0-1.612,6.015c1.386,2.4,3.6,6.238,4.989,8.641a4.4,4.4,0,0,0,6.015,1.612l.006,0a4.174,4.174,0,0,1,6.261,3.614V55.8a4.4,4.4,0,0,0,4.4,4.4h9.978a4.4,4.4,0,0,0,4.4-4.4v-.006a4.174,4.174,0,0,1,6.261-3.614l.006,0a4.4,4.4,0,0,0,6.015-1.612c1.386-2.4,3.6-6.238,4.989-8.641a4.4,4.4,0,0,0-1.612-6.015l-.006,0a4.173,4.173,0,0,1,0-7.228l.006,0a4.4,4.4,0,0,0,1.612-6.015c-1.386-2.4-3.6-6.238-4.989-8.641a4.4,4.4,0,0,0-6.015-1.612ZM32.977,19.147A13.149,13.149,0,1,0,46.127,32.3,13.156,13.156,0,0,0,32.977,19.147Z" transform="translate(822.275 144.803)" fill="#2271b1" fill-rule="evenodd"/>
    </g>
    <path id="Path_16" data-name="Path 16" d="M-45.475-7.224A7.249,7.249,0,0,0-38.209.189a7.276,7.276,0,0,0,5.124-2,1.524,1.524,0,0,0-.189-2.1,1.526,1.526,0,0,0-1.974-.021,4.251,4.251,0,0,1-2.961,1.134,4.267,4.267,0,0,1-4.2-4.431,4.267,4.267,0,0,1,4.2-4.431,4.251,4.251,0,0,1,2.961,1.134,1.526,1.526,0,0,0,1.974-.021,1.524,1.524,0,0,0,.189-2.1,7.276,7.276,0,0,0-5.124-1.995A7.249,7.249,0,0,0-45.475-7.224Zm21.4,7.413a5.389,5.389,0,0,0,5.628-5.376v-7.959a1.554,1.554,0,0,0-1.533-1.428,1.5,1.5,0,0,0-1.533,1.428v7.959a2.5,2.5,0,0,1-2.52,2.478A2.512,2.512,0,0,1-26.6-5.187v-7.959a1.5,1.5,0,0,0-1.533-1.428,1.554,1.554,0,0,0-1.533,1.428v7.959A5.389,5.389,0,0,0-24.035.189Zm9.261-3.108c.63,1.869,2.478,3.108,5.04,3.108s5.166-1.365,5.208-4.242c.042-1.386-.462-3.36-3.969-4.368l-1.722-.5c-1.407-.4-1.554-1.092-1.554-1.47,0-.861.8-1.491,1.869-1.491a2.557,2.557,0,0,1,2.058,1.008,1.342,1.342,0,0,0,1.932.357,1.271,1.271,0,0,0,.462-1.7A4.67,4.67,0,0,0-9.9-14.637c-2.772,0-4.977,1.743-4.977,4.326,0,1.3.546,3.129,3.738,4.116l1.743.483c1.47.42,1.764.987,1.743,1.638-.021.945-.882,1.533-2.121,1.533a2.452,2.452,0,0,1-2.331-1.365A1.5,1.5,0,0,0-14-4.641,1.349,1.349,0,0,0-14.815-2.919Zm22.2-8.841A1.37,1.37,0,0,0,8.642-13.1a1.316,1.316,0,0,0-1.26-1.365h-8.61A1.316,1.316,0,0,0-2.488-13.1a1.37,1.37,0,0,0,1.26,1.344H1.544V-1.323A1.539,1.539,0,0,0,3.077.105,1.5,1.5,0,0,0,4.61-1.323V-11.76ZM13.514-7.2a4.322,4.322,0,0,1,4.263-4.452A4.339,4.339,0,0,1,22.061-7.2a4.3,4.3,0,0,1-4.284,4.41A4.286,4.286,0,0,1,13.514-7.2Zm-3.066,0A7.336,7.336,0,0,0,17.777.189,7.34,7.34,0,0,0,25.127-7.2a7.35,7.35,0,0,0-7.35-7.434A7.345,7.345,0,0,0,10.448-7.2ZM36.7-5.145l-3.99-8.505a1.3,1.3,0,0,0-1.386-.924h-.315a1.485,1.485,0,0,0-1.365,1.365L28.192-1.428A1.5,1.5,0,0,0,29.6.105a1.518,1.518,0,0,0,1.638-1.3l.882-7.476,2.9,5.943A1.907,1.907,0,0,0,36.7-1.449,1.936,1.936,0,0,0,38.4-2.73l2.877-5.943L42.158-1.2A1.518,1.518,0,0,0,43.8.105,1.513,1.513,0,0,0,45.2-1.428L43.754-13.209a1.485,1.485,0,0,0-1.365-1.365h-.315a1.318,1.318,0,0,0-1.386.924Z" transform="translate(855 234)" fill="#444"/>
  </g>
</svg>
