<svg xmlns="http://www.w3.org/2000/svg" width="114" height="114" viewBox="0 0 114 114">
  <g id="col-12" transform="translate(-1848 -282)">
    <rect id="box" width="114" height="114" transform="translate(1848 282)" fill="#fff"/>
    <g id="icon" transform="translate(1873 294)" fill="#fff" stroke="#2271b1" stroke-width="4">
      <rect width="64" height="64" rx="6" stroke="none"/>
      <rect x="2" y="2" width="60" height="60" rx="4" fill="none"/>
    </g>
    <path id="Path_14" data-name="Path 14" d="M-24.874-12.18a1.14,1.14,0,0,0-.462,1.554,1.186,1.186,0,0,0,1.512.588l.945-.4V-1.26A1.487,1.487,0,0,0-21.409.105a1.442,1.442,0,0,0,1.47-1.365V-13.377a.654.654,0,0,0-.651-.651h-.042a1.732,1.732,0,0,0-.714.168ZM-13.429-10a1.856,1.856,0,0,1,1.764-1.218c1.092,0,1.722.63,1.722,1.365A2.8,2.8,0,0,1-10.678-8.3l-5,6.195a1.8,1.8,0,0,0-.441,1.113A.9.9,0,0,0-15.172,0h7.014A1.381,1.381,0,0,0-6.877-1.386,1.352,1.352,0,0,0-8.158-2.772h-3.4l3.108-3.591A5.6,5.6,0,0,0-7-9.849,4.265,4.265,0,0,0-11.5-14.028a4.557,4.557,0,0,0-4.536,3.171,1.309,1.309,0,0,0,.819,1.722A1.458,1.458,0,0,0-13.429-10ZM3.938-13.083a.975.975,0,0,0-.525-1.281,1,1,0,0,0-1.323.378l-6.048,12.6A1.032,1.032,0,0,0-3.413-.105,1,1,0,0,0-2.069-.5Zm2.94.9a1.14,1.14,0,0,0-.462,1.554,1.186,1.186,0,0,0,1.512.588l.945-.4V-1.26A1.487,1.487,0,0,0,10.343.105a1.442,1.442,0,0,0,1.47-1.365V-13.377a.654.654,0,0,0-.651-.651H11.12a1.732,1.732,0,0,0-.714.168ZM18.323-10a1.856,1.856,0,0,1,1.764-1.218c1.092,0,1.722.63,1.722,1.365A2.8,2.8,0,0,1,21.073-8.3l-5,6.195a1.8,1.8,0,0,0-.441,1.113A.9.9,0,0,0,16.58,0h7.014a1.381,1.381,0,0,0,1.281-1.386,1.352,1.352,0,0,0-1.281-1.386h-3.4L23.3-6.363a5.6,5.6,0,0,0,1.449-3.486,4.265,4.265,0,0,0-4.494-4.179,4.557,4.557,0,0,0-4.536,3.171,1.309,1.309,0,0,0,.819,1.722A1.458,1.458,0,0,0,18.323-10Z" transform="translate(1905 384)" fill="#444"/>
  </g>
</svg>
