<svg xmlns="http://www.w3.org/2000/svg" width="114" height="114" viewBox="0 0 114 114">
  <g id="col-11" transform="translate(-1698 -282)">
    <rect id="box" width="114" height="114" transform="translate(1698 282)" fill="#fff"/>
    <g id="icon">
      <g id="Rectangle_393" data-name="Rectangle 393" transform="translate(1723 294)" fill="rgba(34,113,177,0.15)" stroke="#2271b1" stroke-width="4">
        <rect width="64" height="64" rx="6" stroke="none"/>
        <rect x="2" y="2" width="60" height="60" rx="4" fill="none"/>
      </g>
      <g id="Rectangle_394" data-name="Rectangle 394" transform="translate(1730 298)" fill="#fff" stroke="#2271b1" stroke-width="2">
        <rect width="50" height="56" stroke="none"/>
        <rect x="-1" y="-1" width="52" height="58" fill="none"/>
      </g>
    </g>
    <path id="Path_13" data-name="Path 13" d="M-23.037-12.18a1.14,1.14,0,0,0-.462,1.554,1.186,1.186,0,0,0,1.512.588l.945-.4V-1.26A1.487,1.487,0,0,0-19.572.105,1.442,1.442,0,0,0-18.1-1.26V-13.377a.654.654,0,0,0-.651-.651h-.042a1.732,1.732,0,0,0-.714.168Zm8.82,0a1.14,1.14,0,0,0-.462,1.554,1.186,1.186,0,0,0,1.512.588l.945-.4V-1.26A1.487,1.487,0,0,0-10.752.105,1.442,1.442,0,0,0-9.282-1.26V-13.377a.654.654,0,0,0-.651-.651h-.042a1.732,1.732,0,0,0-.714.168Zm16.317-.9a.975.975,0,0,0-.525-1.281,1,1,0,0,0-1.323.378L-5.8-1.386A1.032,1.032,0,0,0-5.25-.105,1,1,0,0,0-3.906-.5Zm2.94.9a1.14,1.14,0,0,0-.462,1.554,1.186,1.186,0,0,0,1.512.588l.945-.4V-1.26A1.487,1.487,0,0,0,8.505.105,1.442,1.442,0,0,0,9.975-1.26V-13.377a.654.654,0,0,0-.651-.651H9.282a1.732,1.732,0,0,0-.714.168ZM16.485-10a1.856,1.856,0,0,1,1.764-1.218c1.092,0,1.722.63,1.722,1.365A2.8,2.8,0,0,1,19.236-8.3l-5,6.195A1.8,1.8,0,0,0,13.8-.987.9.9,0,0,0,14.742,0h7.014a1.381,1.381,0,0,0,1.281-1.386,1.352,1.352,0,0,0-1.281-1.386h-3.4l3.108-3.591a5.6,5.6,0,0,0,1.449-3.486,4.265,4.265,0,0,0-4.494-4.179,4.557,4.557,0,0,0-4.536,3.171A1.309,1.309,0,0,0,14.7-9.135,1.458,1.458,0,0,0,16.485-10Z" transform="translate(1755 384)" fill="#444"/>
  </g>
</svg>
