<svg xmlns="http://www.w3.org/2000/svg" width="114" height="114" viewBox="0 0 114 114">
  <g id="col-auto" transform="translate(-48 -282)">
    <rect id="box" width="114" height="114" transform="translate(48 282)" fill="#fff"/>
    <g id="icon" transform="translate(0 150)">
      <rect id="Rectangle_215" data-name="Rectangle 215" width="4" height="40" rx="2" transform="translate(73 156)" fill="#2271b1"/>
      <rect id="Rectangle_217" data-name="Rectangle 217" width="4" height="18" rx="2" transform="translate(96.728 163.136) rotate(45)" fill="#2271b1"/>
      <rect id="Rectangle_221" data-name="Rectangle 221" width="40" height="4" rx="2" transform="translate(85 174)" fill="#2271b1"/>
      <rect id="Rectangle_220" data-name="Rectangle 220" width="4" height="18" rx="2" transform="translate(113.272 188.864) rotate(-135)" fill="#2271b1"/>
      <rect id="Rectangle_218" data-name="Rectangle 218" width="4" height="18" rx="2" transform="translate(84 176.136) rotate(-45)" fill="#2271b1"/>
      <rect id="Rectangle_219" data-name="Rectangle 219" width="4" height="18" rx="2" transform="translate(126 175.864) rotate(135)" fill="#2271b1"/>
      <rect id="Rectangle_216" data-name="Rectangle 216" width="4" height="40" rx="2" transform="translate(133 156)" fill="#2271b1"/>
    </g>
    <path id="Path_15" data-name="Path 15" d="M-20.034-3.423l.987,2.646a1.544,1.544,0,0,0,1.932.8,1.563,1.563,0,0,0,.924-1.911L-20.37-13.146a2.068,2.068,0,0,0-2.079-1.428h-.126a2.068,2.068,0,0,0-2.079,1.428L-28.833-1.89A1.563,1.563,0,0,0-27.909.021a1.544,1.544,0,0,0,1.932-.8l.987-2.646ZM-23.982-6.09l1.47-5.04,1.47,5.04ZM-7.749.189A5.389,5.389,0,0,0-2.121-5.187v-7.959a1.554,1.554,0,0,0-1.533-1.428,1.5,1.5,0,0,0-1.533,1.428v7.959a2.5,2.5,0,0,1-2.52,2.478,2.512,2.512,0,0,1-2.562-2.478v-7.959A1.5,1.5,0,0,0-11.8-14.574a1.554,1.554,0,0,0-1.533,1.428v7.959A5.389,5.389,0,0,0-7.707.189ZM10.626-11.76a1.37,1.37,0,0,0,1.26-1.344,1.316,1.316,0,0,0-1.26-1.365H2.016A1.316,1.316,0,0,0,.756-13.1a1.37,1.37,0,0,0,1.26,1.344H4.788V-1.323A1.539,1.539,0,0,0,6.321.105,1.5,1.5,0,0,0,7.854-1.323V-11.76ZM16.758-7.2a4.322,4.322,0,0,1,4.263-4.452A4.339,4.339,0,0,1,25.305-7.2a4.3,4.3,0,0,1-4.284,4.41A4.286,4.286,0,0,1,16.758-7.2Zm-3.066,0A7.336,7.336,0,0,0,21.021.189,7.34,7.34,0,0,0,28.371-7.2a7.35,7.35,0,0,0-7.35-7.434A7.345,7.345,0,0,0,13.692-7.2Z" transform="translate(105 384)" fill="#444"/>
  </g>
</svg>
