<svg xmlns="http://www.w3.org/2000/svg" width="114" height="114" viewBox="0 0 114 114">
  <g id="col-3" transform="translate(-498 -282)">
    <rect id="box" width="114" height="114" transform="translate(498 282)" fill="#fff"/>
    <g id="icon">
      <g id="Rectangle_377" data-name="Rectangle 377" transform="translate(523 294)" fill="rgba(34,113,177,0.15)" stroke="#2271b1" stroke-width="4">
        <rect width="64" height="64" rx="6" stroke="none"/>
        <rect x="2" y="2" width="60" height="60" rx="4" fill="none"/>
      </g>
      <g id="Rectangle_378" data-name="Rectangle 378" transform="translate(548 298)" fill="#fff" stroke="#2271b1" stroke-width="2">
        <rect width="14" height="56" stroke="none"/>
        <rect x="-1" y="-1" width="16" height="58" fill="none"/>
      </g>
    </g>
    <path id="Path_5" data-name="Path 5" d="M-17.8-10.9a2.486,2.486,0,0,1,1.344-.4,1.369,1.369,0,0,1,1.386,1.323,1.314,1.314,0,0,1-1.344,1.491h-.546a1.28,1.28,0,0,0-1.176,1.26,1.235,1.235,0,0,0,1.176,1.26h.672a1.583,1.583,0,0,1,1.743,1.827,1.9,1.9,0,0,1-1.974,1.47,3.138,3.138,0,0,1-1.743-.693,1.372,1.372,0,0,0-2,.063,1.4,1.4,0,0,0,.042,1.869,5.113,5.113,0,0,0,3.465,1.6C-14,.357-11.56-1.386-11.329-3.738a3.813,3.813,0,0,0-2.352-3.738,3.2,3.2,0,0,0,1.764-2.688,4.023,4.023,0,0,0-4.074-3.864,4.935,4.935,0,0,0-3.7,1.3,1.281,1.281,0,0,0-.084,1.785C-19.247-10.4-18.68-10.332-17.8-10.9Zm17.22-2.184A.975.975,0,0,0-1.1-14.364a1,1,0,0,0-1.323.378l-6.048,12.6A1.032,1.032,0,0,0-7.927-.105,1,1,0,0,0-6.583-.5Zm2.94.9A1.14,1.14,0,0,0,1.9-10.626a1.186,1.186,0,0,0,1.512.588l.945-.4V-1.26A1.487,1.487,0,0,0,5.828.105,1.442,1.442,0,0,0,7.3-1.26V-13.377a.654.654,0,0,0-.651-.651H6.6a1.732,1.732,0,0,0-.714.168ZM13.807-10a1.856,1.856,0,0,1,1.764-1.218c1.092,0,1.722.63,1.722,1.365A2.8,2.8,0,0,1,16.559-8.3l-5,6.195A1.8,1.8,0,0,0,11.12-.987.9.9,0,0,0,12.064,0h7.014A1.381,1.381,0,0,0,20.36-1.386a1.352,1.352,0,0,0-1.281-1.386h-3.4l3.108-3.591a5.6,5.6,0,0,0,1.449-3.486,4.265,4.265,0,0,0-4.494-4.179A4.557,4.557,0,0,0,11.2-10.857a1.309,1.309,0,0,0,.819,1.722A1.458,1.458,0,0,0,13.807-10Z" transform="translate(555 384)" fill="#444"/>
  </g>
</svg>
