<svg xmlns="http://www.w3.org/2000/svg" width="114" height="114" viewBox="0 0 114 114">
  <g id="col-8" transform="translate(-1248 -282)">
    <rect id="box" width="114" height="114" transform="translate(1248 282)" fill="#fff"/>
    <g id="icon">
      <g id="Rectangle_387" data-name="Rectangle 387" transform="translate(1273 294)" fill="rgba(34,113,177,0.15)" stroke="#2271b1" stroke-width="4">
        <rect width="64" height="64" rx="6" stroke="none"/>
        <rect x="2" y="2" width="60" height="60" rx="4" fill="none"/>
      </g>
      <g id="Rectangle_388" data-name="Rectangle 388" transform="translate(1286 298)" fill="#fff" stroke="#2271b1" stroke-width="2">
        <rect width="38" height="56" stroke="none"/>
        <rect x="-1" y="-1" width="40" height="58" fill="none"/>
      </g>
    </g>
    <path id="Path_10" data-name="Path 10" d="M-20.118-10.185a3.133,3.133,0,0,0,.987,2.31A3.937,3.937,0,0,0-21.1-4.41c0,2.625,2.352,4.6,5.229,4.6s5.229-1.974,5.229-4.6a3.962,3.962,0,0,0-1.974-3.465,3.008,3.008,0,0,0,1.008-2.31,4.085,4.085,0,0,0-4.263-3.843A4.066,4.066,0,0,0-20.118-10.185Zm1.953,5.628A2.079,2.079,0,0,1-15.9-6.615a2.093,2.093,0,0,1,2.31,2.058,2.167,2.167,0,0,1-2.289,2.016A2.167,2.167,0,0,1-18.165-4.557Zm.882-5.544a1.294,1.294,0,0,1,1.407-1.281A1.294,1.294,0,0,1-14.469-10.1a1.29,1.29,0,0,1-1.407,1.323A1.29,1.29,0,0,1-17.283-10.1ZM.063-13.083a.975.975,0,0,0-.525-1.281,1,1,0,0,0-1.323.378l-6.048,12.6A1.032,1.032,0,0,0-7.287-.105,1,1,0,0,0-5.943-.5Zm2.94.9a1.14,1.14,0,0,0-.462,1.554,1.186,1.186,0,0,0,1.512.588l.945-.4V-1.26A1.487,1.487,0,0,0,6.468.105,1.442,1.442,0,0,0,7.938-1.26V-13.377a.654.654,0,0,0-.651-.651H7.245a1.732,1.732,0,0,0-.714.168ZM14.448-10a1.856,1.856,0,0,1,1.764-1.218c1.092,0,1.722.63,1.722,1.365A2.8,2.8,0,0,1,17.2-8.3L12.2-2.1A1.8,1.8,0,0,0,11.76-.987.9.9,0,0,0,12.7,0h7.014A1.381,1.381,0,0,0,21-1.386a1.352,1.352,0,0,0-1.281-1.386h-3.4l3.108-3.591a5.6,5.6,0,0,0,1.449-3.486,4.265,4.265,0,0,0-4.494-4.179,4.557,4.557,0,0,0-4.536,3.171,1.309,1.309,0,0,0,.819,1.722A1.458,1.458,0,0,0,14.448-10Z" transform="translate(1305 384)" fill="#444"/>
  </g>
</svg>
