<svg xmlns="http://www.w3.org/2000/svg" width="114" height="114" viewBox="0 0 114 114">
  <g id="offset-9" transform="translate(-1398 -681)">
    <rect id="box" width="114" height="114" transform="translate(1398 681)" fill="#fff"/>
    <g id="icon">
      <g id="Rectangle_421" data-name="Rectangle 421" transform="translate(1423 693)" fill="rgba(34,113,177,0.15)" stroke="#2271b1" stroke-width="4">
        <rect width="64" height="64" rx="6" stroke="none"/>
        <rect x="2" y="2" width="60" height="60" rx="4" fill="none"/>
      </g>
      <g id="Rectangle_425" data-name="Rectangle 425" transform="translate(1469 697)" fill="#fff" stroke="#2271b1" stroke-width="2">
        <path d="M0,0H12a2,2,0,0,1,2,2V54a2,2,0,0,1-2,2H0a0,0,0,0,1,0,0V0A0,0,0,0,1,0,0Z" stroke="none"/>
        <path d="M-1-1H12a3,3,0,0,1,3,3V54a3,3,0,0,1-3,3H-1a0,0,0,0,1,0,0V-1A0,0,0,0,1-1-1Z" fill="none"/>
      </g>
    </g>
    <path id="Path_26" data-name="Path 26" d="M-18.007-3.087a1.724,1.724,0,0,0-1.029-.378,1.37,1.37,0,0,0-1.3,1.323,1.532,1.532,0,0,0,.378.987A4.4,4.4,0,0,0-16.369.189c4.347,0,5.4-4.011,5.4-7.539,0-.5-.021-1.008-.063-1.47-.294-2.919-2.352-5.208-4.935-5.208-3,0-5,1.953-5,4.6a4.22,4.22,0,0,0,4.1,4.326c1.932,0,2.793-.987,2.982-1.6,0,1.89-.546,4.137-2.6,4.137A2.588,2.588,0,0,1-18.007-3.087Zm.084-6.342a1.82,1.82,0,0,1,1.806-1.806,1.82,1.82,0,0,1,1.806,1.806,1.82,1.82,0,0,1-1.806,1.806A1.82,1.82,0,0,1-17.924-9.429ZM-.136-13.083a.975.975,0,0,0-.525-1.281,1,1,0,0,0-1.323.378l-6.048,12.6A1.032,1.032,0,0,0-7.486-.105,1,1,0,0,0-6.142-.5Zm2.94.9a1.14,1.14,0,0,0-.462,1.554,1.186,1.186,0,0,0,1.512.588l.945-.4V-1.26A1.487,1.487,0,0,0,6.269.105,1.442,1.442,0,0,0,7.739-1.26V-13.377a.654.654,0,0,0-.651-.651H7.046a1.732,1.732,0,0,0-.714.168ZM14.248-10a1.856,1.856,0,0,1,1.764-1.218c1.092,0,1.722.63,1.722,1.365A2.8,2.8,0,0,1,17-8.3L12-2.1a1.8,1.8,0,0,0-.441,1.113A.9.9,0,0,0,12.505,0H19.52A1.381,1.381,0,0,0,20.8-1.386,1.352,1.352,0,0,0,19.52-2.772h-3.4l3.108-3.591a5.6,5.6,0,0,0,1.449-3.486,4.265,4.265,0,0,0-4.494-4.179,4.557,4.557,0,0,0-4.536,3.171,1.309,1.309,0,0,0,.819,1.722A1.458,1.458,0,0,0,14.248-10Z" transform="translate(1455 783)" fill="#444"/>
  </g>
</svg>
