<svg xmlns="http://www.w3.org/2000/svg" width="114" height="114" viewBox="0 0 114 114">
  <g id="offset-2" transform="translate(-348 -681)">
    <rect id="box" width="114" height="114" transform="translate(348 681)" fill="#fff"/>
    <g id="icon">
      <g id="Rectangle_405" data-name="Rectangle 405" transform="translate(373 693)" fill="rgba(34,113,177,0.15)" stroke="#2271b1" stroke-width="4">
        <rect width="64" height="64" rx="6" stroke="none"/>
        <rect x="2" y="2" width="60" height="60" rx="4" fill="none"/>
      </g>
      <g id="Rectangle_410" data-name="Rectangle 410" transform="translate(387 697)" fill="#fff" stroke="#2271b1" stroke-width="2">
        <path d="M0,0H44a2,2,0,0,1,2,2V54a2,2,0,0,1-2,2H0a0,0,0,0,1,0,0V0A0,0,0,0,1,0,0Z" stroke="none"/>
        <path d="M-1-1H44a3,3,0,0,1,3,3V54a3,3,0,0,1-3,3H-1a0,0,0,0,1,0,0V-1A0,0,0,0,1-1-1Z" fill="none"/>
      </g>
    </g>
    <path id="Path_18" data-name="Path 18" d="M-17.839-10a1.856,1.856,0,0,1,1.764-1.218c1.092,0,1.722.63,1.722,1.365A2.8,2.8,0,0,1-15.088-8.3l-5,6.195a1.8,1.8,0,0,0-.441,1.113A.9.9,0,0,0-19.582,0h7.014a1.381,1.381,0,0,0,1.281-1.386,1.352,1.352,0,0,0-1.281-1.386h-3.4l3.108-3.591a5.6,5.6,0,0,0,1.449-3.486,4.265,4.265,0,0,0-4.494-4.179,4.557,4.557,0,0,0-4.536,3.171,1.309,1.309,0,0,0,.819,1.722A1.458,1.458,0,0,0-17.839-10ZM-.472-13.083A.975.975,0,0,0-1-14.364a1,1,0,0,0-1.323.378l-6.048,12.6A1.032,1.032,0,0,0-7.822-.105,1,1,0,0,0-6.478-.5Zm2.94.9a1.14,1.14,0,0,0-.462,1.554,1.186,1.186,0,0,0,1.512.588l.945-.4V-1.26A1.487,1.487,0,0,0,5.933.105,1.442,1.442,0,0,0,7.4-1.26V-13.377a.654.654,0,0,0-.651-.651H6.71A1.732,1.732,0,0,0,6-13.86ZM13.912-10a1.856,1.856,0,0,1,1.764-1.218c1.092,0,1.722.63,1.722,1.365A2.8,2.8,0,0,1,16.663-8.3l-5,6.195a1.8,1.8,0,0,0-.441,1.113A.9.9,0,0,0,12.169,0h7.014a1.381,1.381,0,0,0,1.281-1.386,1.352,1.352,0,0,0-1.281-1.386h-3.4l3.108-3.591a5.6,5.6,0,0,0,1.449-3.486,4.265,4.265,0,0,0-4.494-4.179,4.557,4.557,0,0,0-4.536,3.171,1.309,1.309,0,0,0,.819,1.722A1.458,1.458,0,0,0,13.912-10Z" transform="translate(405 783)" fill="#444"/>
  </g>
</svg>
