<svg xmlns="http://www.w3.org/2000/svg" width="114" height="114" viewBox="0 0 114 114">
  <g id="offset-none" transform="translate(-48 -681)">
    <rect id="box" width="114" height="114" transform="translate(48 681)" fill="#fff"/>
    <g id="icon" transform="translate(73 693)" fill="#fff" stroke="#2271b1" stroke-width="4">
      <rect width="64" height="64" rx="6" stroke="none"/>
      <rect x="2" y="2" width="60" height="60" rx="4" fill="none"/>
    </g>
    <path id="Path_20" data-name="Path 20" d="M-5.135-6.888C-5.135-2.961-4,.189.011.189s5.1-3.15,5.1-7.077c0-3.969-1.092-7.14-5.1-7.14S-5.135-10.857-5.135-6.888Zm2.94,0c0-2.331.525-4.284,2.205-4.284,1.659,0,2.163,1.953,2.163,4.284,0,2.31-.5,4.221-2.163,4.221C-1.669-2.667-2.194-4.578-2.194-6.888Z" transform="translate(105 783)" fill="#444"/>
  </g>
</svg>
