<svg xmlns="http://www.w3.org/2000/svg" width="114" height="114" viewBox="0 0 114 114">
  <g id="offset-10" transform="translate(-1548 -681)">
    <rect id="box" width="114" height="114" transform="translate(1548 681)" fill="#fff"/>
    <g id="icon">
      <g id="Rectangle_422" data-name="Rectangle 422" transform="translate(1573 693)" fill="rgba(34,113,177,0.15)" stroke="#2271b1" stroke-width="4">
        <rect width="64" height="64" rx="6" stroke="none"/>
        <rect x="2" y="2" width="60" height="60" rx="4" fill="none"/>
      </g>
      <g id="Rectangle_426" data-name="Rectangle 426" transform="translate(1623 697)" fill="#fff" stroke="#2271b1" stroke-width="2">
        <path d="M0,0H8a2,2,0,0,1,2,2V54a2,2,0,0,1-2,2H0a0,0,0,0,1,0,0V0A0,0,0,0,1,0,0Z" stroke="none"/>
        <path d="M-1-1H8a3,3,0,0,1,3,3V54a3,3,0,0,1-3,3H-1a0,0,0,0,1,0,0V-1A0,0,0,0,1-1-1Z" fill="none"/>
      </g>
    </g>
    <path id="Path_27" data-name="Path 27" d="M-25.462-12.18a1.14,1.14,0,0,0-.462,1.554,1.186,1.186,0,0,0,1.512.588l.945-.4V-1.26A1.487,1.487,0,0,0-22,.105a1.442,1.442,0,0,0,1.47-1.365V-13.377a.654.654,0,0,0-.651-.651h-.042a1.732,1.732,0,0,0-.714.168ZM-16.6-6.888c0,3.927,1.134,7.077,5.145,7.077s5.1-3.15,5.1-7.077c0-3.969-1.092-7.14-5.1-7.14S-16.6-10.857-16.6-6.888Zm2.94,0c0-2.331.525-4.284,2.205-4.284,1.659,0,2.163,1.953,2.163,4.284,0,2.31-.5,4.221-2.163,4.221C-13.135-2.667-13.661-4.578-13.661-6.888Zm18.186-6.2A.975.975,0,0,0,4-14.364a1,1,0,0,0-1.323.378L-3.37-1.386A1.032,1.032,0,0,0-2.824-.105,1,1,0,0,0-1.48-.5Zm2.94.9A1.14,1.14,0,0,0,7-10.626a1.186,1.186,0,0,0,1.512.588l.945-.4V-1.26A1.487,1.487,0,0,0,10.931.105,1.442,1.442,0,0,0,12.4-1.26V-13.377a.654.654,0,0,0-.651-.651h-.042a1.732,1.732,0,0,0-.714.168ZM18.911-10a1.856,1.856,0,0,1,1.764-1.218c1.092,0,1.722.63,1.722,1.365A2.8,2.8,0,0,1,21.662-8.3l-5,6.195a1.8,1.8,0,0,0-.441,1.113A.9.9,0,0,0,17.168,0h7.014a1.381,1.381,0,0,0,1.281-1.386,1.352,1.352,0,0,0-1.281-1.386h-3.4l3.108-3.591a5.6,5.6,0,0,0,1.449-3.486,4.265,4.265,0,0,0-4.494-4.179,4.557,4.557,0,0,0-4.536,3.171,1.309,1.309,0,0,0,.819,1.722A1.458,1.458,0,0,0,18.911-10Z" transform="translate(1605 783)" fill="#444"/>
  </g>
</svg>
