<svg xmlns="http://www.w3.org/2000/svg" width="114" height="114" viewBox="0 0 114 114">
  <g id="offset-7" transform="translate(-1098 -681)">
    <rect id="box" width="114" height="114" transform="translate(1098 681)" fill="#fff"/>
    <g id="icon">
      <g id="Rectangle_433" data-name="Rectangle 433" transform="translate(1123 693)" fill="rgba(34,113,177,0.15)" stroke="#2271b1" stroke-width="4">
        <rect width="64" height="64" rx="6" stroke="none"/>
        <rect x="2" y="2" width="60" height="60" rx="4" fill="none"/>
      </g>
      <g id="Rectangle_434" data-name="Rectangle 434" transform="translate(1159 697)" fill="#fff" stroke="#2271b1" stroke-width="2">
        <path d="M0,0H22a2,2,0,0,1,2,2V54a2,2,0,0,1-2,2H0a0,0,0,0,1,0,0V0A0,0,0,0,1,0,0Z" stroke="none"/>
        <path d="M-1-1H22a3,3,0,0,1,3,3V54a3,3,0,0,1-3,3H-1a0,0,0,0,1,0,0V-1A0,0,0,0,1-1-1Z" fill="none"/>
      </g>
    </g>
    <path id="Path_24" data-name="Path 24" d="M-10.689-11.907a3.457,3.457,0,0,0,.357-1.176c0-.672-.5-.945-1.176-.945h-7.434a1.333,1.333,0,0,0-1.281,1.365,1.372,1.372,0,0,0,1.281,1.344H-14.3l-4.074,9.387A1.477,1.477,0,0,0-17.619,0a1.665,1.665,0,0,0,2.037-.735Zm9.45-1.176a.975.975,0,0,0-.525-1.281,1,1,0,0,0-1.323.378l-6.048,12.6A1.032,1.032,0,0,0-8.589-.105,1,1,0,0,0-7.245-.5Zm2.94.9a1.14,1.14,0,0,0-.462,1.554,1.186,1.186,0,0,0,1.512.588l.945-.4V-1.26A1.487,1.487,0,0,0,5.166.105,1.442,1.442,0,0,0,6.636-1.26V-13.377a.654.654,0,0,0-.651-.651H5.943a1.732,1.732,0,0,0-.714.168ZM13.146-10a1.856,1.856,0,0,1,1.764-1.218c1.092,0,1.722.63,1.722,1.365A2.8,2.8,0,0,1,15.9-8.3L10.9-2.1a1.8,1.8,0,0,0-.441,1.113A.9.9,0,0,0,11.4,0h7.014A1.381,1.381,0,0,0,19.7-1.386a1.352,1.352,0,0,0-1.281-1.386h-3.4l3.108-3.591a5.6,5.6,0,0,0,1.449-3.486,4.265,4.265,0,0,0-4.494-4.179,4.557,4.557,0,0,0-4.536,3.171,1.309,1.309,0,0,0,.819,1.722A1.458,1.458,0,0,0,13.146-10Z" transform="translate(1155 783)" fill="#444"/>
  </g>
</svg>
