<svg xmlns="http://www.w3.org/2000/svg" width="114" height="114" viewBox="0 0 114 114">
  <g id="offset-1" transform="translate(-198 -681)">
    <rect id="box" width="114" height="114" transform="translate(198 681)" fill="#fff"/>
    <g id="icon">
      <g id="Rectangle_404" data-name="Rectangle 404" transform="translate(223 693)" fill="rgba(34,113,177,0.15)" stroke="#2271b1" stroke-width="4">
        <rect width="64" height="64" rx="6" stroke="none"/>
        <rect x="2" y="2" width="60" height="60" rx="4" fill="none"/>
      </g>
      <g id="Rectangle_409" data-name="Rectangle 409" transform="translate(231 697)" fill="#fff" stroke="#2271b1" stroke-width="2">
        <path d="M0,0H50a2,2,0,0,1,2,2V54a2,2,0,0,1-2,2H0a0,0,0,0,1,0,0V0A0,0,0,0,1,0,0Z" stroke="none"/>
        <path d="M-1-1H50a3,3,0,0,1,3,3V54a3,3,0,0,1-3,3H-1a0,0,0,0,1,0,0V-1A0,0,0,0,1-1-1Z" fill="none"/>
      </g>
    </g>
    <path id="Path_19" data-name="Path 19" d="M-18.627-12.18a1.14,1.14,0,0,0-.462,1.554,1.186,1.186,0,0,0,1.512.588l.945-.4V-1.26A1.487,1.487,0,0,0-15.162.105a1.442,1.442,0,0,0,1.47-1.365V-13.377a.654.654,0,0,0-.651-.651h-.042a1.732,1.732,0,0,0-.714.168Zm16.317-.9a.975.975,0,0,0-.525-1.281,1,1,0,0,0-1.323.378l-6.048,12.6A1.032,1.032,0,0,0-9.66-.105,1,1,0,0,0-8.316-.5Zm2.94.9a1.14,1.14,0,0,0-.462,1.554,1.186,1.186,0,0,0,1.512.588l.945-.4V-1.26A1.487,1.487,0,0,0,4.1.105,1.442,1.442,0,0,0,5.565-1.26V-13.377a.654.654,0,0,0-.651-.651H4.872a1.732,1.732,0,0,0-.714.168ZM12.075-10a1.856,1.856,0,0,1,1.764-1.218c1.092,0,1.722.63,1.722,1.365A2.8,2.8,0,0,1,14.826-8.3l-5,6.195A1.8,1.8,0,0,0,9.387-.987.9.9,0,0,0,10.332,0h7.014a1.381,1.381,0,0,0,1.281-1.386,1.352,1.352,0,0,0-1.281-1.386h-3.4l3.108-3.591A5.6,5.6,0,0,0,18.5-9.849a4.265,4.265,0,0,0-4.494-4.179,4.557,4.557,0,0,0-4.536,3.171,1.309,1.309,0,0,0,.819,1.722A1.458,1.458,0,0,0,12.075-10Z" transform="translate(255 783)" fill="#444"/>
  </g>
</svg>
