<svg xmlns="http://www.w3.org/2000/svg" width="114" height="114" viewBox="0 0 114 114">
  <g id="offset-5" transform="translate(-798 -681)">
    <rect id="box" width="114" height="114" transform="translate(798 681)" fill="#fff"/>
    <g id="icon">
      <g id="Rectangle_408" data-name="Rectangle 408" transform="translate(823 693)" fill="rgba(34,113,177,0.15)" stroke="#2271b1" stroke-width="4">
        <rect width="64" height="64" rx="6" stroke="none"/>
        <rect x="2" y="2" width="60" height="60" rx="4" fill="none"/>
      </g>
      <g id="Rectangle_413" data-name="Rectangle 413" transform="translate(851 697)" fill="#fff" stroke="#2271b1" stroke-width="2">
        <path d="M0,0H30a2,2,0,0,1,2,2V54a2,2,0,0,1-2,2H0a0,0,0,0,1,0,0V0A0,0,0,0,1,0,0Z" stroke="none"/>
        <path d="M-1-1H30a3,3,0,0,1,3,3V54a3,3,0,0,1-3,3H-1a0,0,0,0,1,0,0V-1A0,0,0,0,1-1-1Z" fill="none"/>
      </g>
    </g>
    <path id="Path_22" data-name="Path 22" d="M-20.433-1.512a5.842,5.842,0,0,0,3.969,1.7c3.465,0,5.607-2.121,5.607-5.04A4.321,4.321,0,0,0-15.12-9.345a3.973,3.973,0,0,0-2.457.735l.42-2.562h4.347a1.352,1.352,0,0,0,1.239-1.344A1.308,1.308,0,0,0-12.81-13.86h-5.838a.983.983,0,0,0-.966.84L-20.538-7.1a1.107,1.107,0,0,0,.483,1.281c.5.294.966.315,1.281-.021a3.83,3.83,0,0,1,2.751-1.2,2.041,2.041,0,0,1,2.289,2.184c0,1.113-.861,2.184-2.73,2.184a3.5,3.5,0,0,1-2.016-.861,1.491,1.491,0,0,0-1.911,0A1.467,1.467,0,0,0-20.433-1.512ZM-.21-13.083a.975.975,0,0,0-.525-1.281,1,1,0,0,0-1.323.378l-6.048,12.6A1.032,1.032,0,0,0-7.56-.105,1,1,0,0,0-6.216-.5Zm2.94.9a1.14,1.14,0,0,0-.462,1.554,1.186,1.186,0,0,0,1.512.588l.945-.4V-1.26A1.487,1.487,0,0,0,6.2.105,1.442,1.442,0,0,0,7.665-1.26V-13.377a.654.654,0,0,0-.651-.651H6.972a1.732,1.732,0,0,0-.714.168ZM14.175-10a1.856,1.856,0,0,1,1.764-1.218c1.092,0,1.722.63,1.722,1.365A2.8,2.8,0,0,1,16.926-8.3l-5,6.195a1.8,1.8,0,0,0-.441,1.113A.9.9,0,0,0,12.432,0h7.014a1.381,1.381,0,0,0,1.281-1.386,1.352,1.352,0,0,0-1.281-1.386h-3.4l3.108-3.591A5.6,5.6,0,0,0,20.6-9.849a4.265,4.265,0,0,0-4.494-4.179,4.557,4.557,0,0,0-4.536,3.171,1.309,1.309,0,0,0,.819,1.722A1.458,1.458,0,0,0,14.175-10Z" transform="translate(855 783)" fill="#444"/>
  </g>
</svg>
