<svg xmlns="http://www.w3.org/2000/svg" width="114" height="114" viewBox="0 0 114 114">
  <g id="horizontal-align-right" transform="translate(-948 -930)">
    <rect id="box" width="114" height="114" transform="translate(948 930)" fill="#fff"/>
    <g id="icon" transform="translate(0 -13)">
      <rect id="Rectangle_75" data-name="Rectangle 75" width="2" height="64" transform="translate(1030 955)" fill="#2271b1"/>
      <g id="Rectangle_73" data-name="Rectangle 73" transform="translate(978 963)" fill="none" stroke="#2271b1" stroke-width="4">
        <rect width="48" height="20" rx="6" stroke="none"/>
        <rect x="2" y="2" width="44" height="16" rx="4" fill="none"/>
      </g>
      <g id="Rectangle_74" data-name="Rectangle 74" transform="translate(994 991)" fill="none" stroke="#2271b1" stroke-width="4">
        <rect width="32" height="20" rx="6" stroke="none"/>
        <rect x="2" y="2" width="28" height="16" rx="4" fill="none"/>
      </g>
    </g>
    <path id="_4_12" data-name="4/12" d="M-25.316-11.76a1.91,1.91,0,0,1,1.743,2.037A1.924,1.924,0,0,1-25.4-7.686H-28.15V-11.76Zm4.809,1.953a4.543,4.543,0,0,0-4.809-4.662h-4.431a1.474,1.474,0,0,0-1.47,1.575V-1.323A1.539,1.539,0,0,0-29.684.105,1.5,1.5,0,0,0-28.15-1.323V-5.1h1.407l2.772,4.578a1.5,1.5,0,0,0,2,.42,1.463,1.463,0,0,0,.567-2l-2.352-3.381A4.489,4.489,0,0,0-20.507-9.807Zm6.615-3.339a1.5,1.5,0,0,0-1.533-1.428,1.554,1.554,0,0,0-1.533,1.428V-1.323A1.539,1.539,0,0,0-15.425.105a1.5,1.5,0,0,0,1.533-1.428Zm17.955,6.7c.084-.777-.189-1.155-.9-1.155h-5.4a1.246,1.246,0,0,0-1.239,1.26A1.284,1.284,0,0,0-2.236-5.1H.619a3.556,3.556,0,0,1-3.57,2.31A4.356,4.356,0,0,1-7.3-7.2a4.379,4.379,0,0,1,4.347-4.452,4.245,4.245,0,0,1,2.541.777,1.52,1.52,0,0,0,1.848-.1,1.571,1.571,0,0,0,.126-2.142,7.092,7.092,0,0,0-4.515-1.512A7.376,7.376,0,0,0-10.364-7.2,7.367,7.367,0,0,0-2.951.189C.892.189,3.56-1.848,4.064-6.447Zm14.385-6.7a1.5,1.5,0,0,0-1.533-1.428,1.554,1.554,0,0,0-1.533,1.428v4.578H10.238v-4.578A1.5,1.5,0,0,0,8.7-14.574a1.554,1.554,0,0,0-1.533,1.428V-1.323A1.539,1.539,0,0,0,8.7.105a1.5,1.5,0,0,0,1.533-1.428V-5.817h5.145v4.494A1.539,1.539,0,0,0,16.916.105a1.5,1.5,0,0,0,1.533-1.428ZM31.28-11.76A1.37,1.37,0,0,0,32.54-13.1a1.316,1.316,0,0,0-1.26-1.365H22.67A1.316,1.316,0,0,0,21.41-13.1a1.37,1.37,0,0,0,1.26,1.344h2.772V-1.323A1.539,1.539,0,0,0,26.975.105a1.5,1.5,0,0,0,1.533-1.428V-11.76Z" transform="translate(1005 1032)" fill="#444"/>
  </g>
</svg>
