<svg xmlns="http://www.w3.org/2000/svg" xmlns:xlink="http://www.w3.org/1999/xlink" width="114" height="114" viewBox="0 0 114 114">
  <defs>
    <clipPath id="clip">
      <use xlink:href="#fill"/>
    </clipPath>
  </defs>
  <g id="horizontal-align-center" transform="translate(-798 -930)">
    <rect id="box" width="114" height="114" transform="translate(798 930)" fill="#fff"/>
    <g id="icon" transform="translate(0 -13)">
      <g id="Rectangle_78" data-name="Rectangle 78" transform="translate(854 955)" fill="#2271b1" stroke="#2271b1" stroke-width="8">
        <rect id="fill" width="2" height="64" stroke="none"/>
        <path d="M0,4h2M4,0v64M2,60h-2M-2,64v-64" fill="none" clip-path="url(#clip)"/>
      </g>
      <g id="Rectangle_76" data-name="Rectangle 76" transform="translate(827 963)" fill="none" stroke="#2271b1" stroke-width="4">
        <rect width="56" height="20" rx="6" stroke="none"/>
        <rect x="2" y="2" width="52" height="16" rx="4" fill="none"/>
      </g>
      <g id="Rectangle_77" data-name="Rectangle 77" transform="translate(835 991)" fill="none" stroke="#2271b1" stroke-width="4">
        <rect width="40" height="20" rx="6" stroke="none"/>
        <rect x="2" y="2" width="36" height="16" rx="4" fill="none"/>
      </g>
    </g>
    <path id="_4_12" data-name="4/12" d="M-40.141-7.224A7.249,7.249,0,0,0-32.875.189a7.276,7.276,0,0,0,5.124-2,1.524,1.524,0,0,0-.189-2.1,1.526,1.526,0,0,0-1.974-.021,4.251,4.251,0,0,1-2.961,1.134,4.267,4.267,0,0,1-4.2-4.431,4.267,4.267,0,0,1,4.2-4.431,4.251,4.251,0,0,1,2.961,1.134,1.526,1.526,0,0,0,1.974-.021,1.524,1.524,0,0,0,.189-2.1,7.276,7.276,0,0,0-5.124-1.995A7.249,7.249,0,0,0-40.141-7.224Zm17.136-7.245a1.214,1.214,0,0,0-1.218,1.3V-1.3A1.214,1.214,0,0,0-23.005,0h6.867a1.354,1.354,0,0,0,1.26-1.344,1.311,1.311,0,0,0-1.26-1.344h-5.019V-5.8h4.179a1.334,1.334,0,0,0,1.26-1.323,1.292,1.292,0,0,0-1.26-1.323h-4.179V-11.76h4.83a1.354,1.354,0,0,0,1.26-1.344,1.316,1.316,0,0,0-1.26-1.365ZM-.514-13.146a1.5,1.5,0,0,0-1.533-1.428A1.539,1.539,0,0,0-3.58-13.146v7.329L-7.969-13.5a1.781,1.781,0,0,0-1.7-1.071h-.273A1.5,1.5,0,0,0-11.35-13V-1.323A1.539,1.539,0,0,0-9.817.105,1.5,1.5,0,0,0-8.284-1.323V-8.757L-3.79-.945A1.73,1.73,0,0,0-2.152.105h.273A1.46,1.46,0,0,0-.514-1.428ZM12.317-11.76a1.37,1.37,0,0,0,1.26-1.344,1.316,1.316,0,0,0-1.26-1.365H3.707A1.316,1.316,0,0,0,2.447-13.1a1.37,1.37,0,0,0,1.26,1.344H6.479V-1.323A1.539,1.539,0,0,0,8.012.105,1.5,1.5,0,0,0,9.545-1.323V-11.76Zm5.46-2.709a1.214,1.214,0,0,0-1.218,1.3V-1.3A1.214,1.214,0,0,0,17.777,0h6.867A1.354,1.354,0,0,0,25.9-1.344a1.311,1.311,0,0,0-1.26-1.344H19.625V-5.8H23.8a1.334,1.334,0,0,0,1.26-1.323A1.292,1.292,0,0,0,23.8-8.442H19.625V-11.76h4.83a1.354,1.354,0,0,0,1.26-1.344,1.316,1.316,0,0,0-1.26-1.365ZM35.333-11.76a1.91,1.91,0,0,1,1.743,2.037,1.924,1.924,0,0,1-1.827,2.037H32.5V-11.76Zm4.809,1.953a4.543,4.543,0,0,0-4.809-4.662H30.9a1.474,1.474,0,0,0-1.47,1.575V-1.323A1.539,1.539,0,0,0,30.964.105,1.5,1.5,0,0,0,32.5-1.323V-5.1H33.9L36.676-.525a1.5,1.5,0,0,0,2,.42,1.463,1.463,0,0,0,.567-2L36.886-5.481A4.489,4.489,0,0,0,40.141-9.807Z" transform="translate(855 1032)" fill="#444"/>
  </g>
</svg>
