<svg xmlns="http://www.w3.org/2000/svg" width="114" height="114" viewBox="0 0 114 114">
  <defs>
    <style>
      .cls-1 {
        fill: #fff;
      }

      .cls-2 {
        fill: #2271b1;
      }

      .cls-3 {
        fill: #444;
      }
    </style>
  </defs>
  <g id="vertical-align-top" transform="translate(-48 -930)">
    <path id="box" class="cls-1" d="M0,0H114V114H0Z" transform="translate(48 930)"/>
    <g id="icon" transform="translate(0 -13)">
      <rect id="Rectangle_42" data-name="Rectangle 42" class="cls-2" width="64" height="2" transform="translate(73 960)"/>
      <path id="Rectangle_43" data-name="Rectangle 43" class="cls-2" d="M6,4A2,2,0,0,0,4,6V42a2,2,0,0,0,2,2h8a2,2,0,0,0,2-2V6a2,2,0,0,0-2-2H6M6,0h8a6,6,0,0,1,6,6V42a6,6,0,0,1-6,6H6a6,6,0,0,1-6-6V6A6,6,0,0,1,6,0Z" transform="translate(81 966)"/>
      <path id="Rectangle_44" data-name="Rectangle 44" class="cls-2" d="M6,4A2,2,0,0,0,4,6V26a2,2,0,0,0,2,2h8a2,2,0,0,0,2-2V6a2,2,0,0,0-2-2H6M6,0h8a6,6,0,0,1,6,6V26a6,6,0,0,1-6,6H6a6,6,0,0,1-6-6V6A6,6,0,0,1,6,0Z" transform="translate(109 966)"/>
    </g>
    <path id="_4_12" data-name="4/12" class="cls-3" d="M-11.193-11.76A1.37,1.37,0,0,0-9.933-13.1a1.316,1.316,0,0,0-1.26-1.365H-19.8a1.316,1.316,0,0,0-1.26,1.365A1.37,1.37,0,0,0-19.8-11.76h2.772V-1.323A1.539,1.539,0,0,0-15.5.105a1.5,1.5,0,0,0,1.533-1.428V-11.76ZM-5.061-7.2A4.322,4.322,0,0,1-.8-11.655,4.339,4.339,0,0,1,3.486-7.2,4.3,4.3,0,0,1-.8-2.793,4.286,4.286,0,0,1-5.061-7.2Zm-3.066,0A7.336,7.336,0,0,0-.8.189,7.34,7.34,0,0,0,6.552-7.2,7.35,7.35,0,0,0-.8-14.637,7.345,7.345,0,0,0-8.127-7.2ZM15.939-11.76a1.91,1.91,0,0,1,1.743,2.037,1.924,1.924,0,0,1-1.827,2.037H13.146V-11.76ZM10.08-1.323A1.539,1.539,0,0,0,11.613.105a1.5,1.5,0,0,0,1.533-1.428V-5H16a4.475,4.475,0,0,0,4.767-4.725A4.5,4.5,0,0,0,16-14.469H11.55a1.474,1.474,0,0,0-1.47,1.575Z" transform="translate(105 1032)"/>
  </g>
</svg>
