<svg xmlns="http://www.w3.org/2000/svg" width="114" height="114" viewBox="0 0 114 114">
  <g id="vertical-align-center" transform="translate(-198 -930)">
    <rect id="box" width="114" height="114" transform="translate(198 930)" fill="#fff"/>
    <g id="icon" transform="translate(0 -12)">
      <rect id="Rectangle_45" data-name="Rectangle 45" width="64" height="2" transform="translate(223 986)" fill="#2271b1"/>
      <g id="Rectangle_46" data-name="Rectangle 46" transform="translate(231 959)" fill="none" stroke="#2271b1" stroke-width="4">
        <rect width="20" height="56" rx="6" stroke="none"/>
        <rect x="2" y="2" width="16" height="52" rx="4" fill="none"/>
      </g>
      <g id="Rectangle_47" data-name="Rectangle 47" transform="translate(259 967)" fill="none" stroke="#2271b1" stroke-width="4">
        <rect width="20" height="40" rx="6" stroke="none"/>
        <rect x="2" y="2" width="16" height="36" rx="4" fill="none"/>
      </g>
    </g>
    <path id="_4_12" data-name="4/12" d="M-31.71-5.145-35.7-13.65a1.3,1.3,0,0,0-1.386-.924H-37.4a1.485,1.485,0,0,0-1.365,1.365L-40.215-1.428A1.5,1.5,0,0,0-38.808.105,1.518,1.518,0,0,0-37.17-1.2l.882-7.476,2.9,5.943a1.907,1.907,0,0,0,1.68,1.281,1.936,1.936,0,0,0,1.7-1.281l2.877-5.943L-26.25-1.2a1.518,1.518,0,0,0,1.638,1.3A1.513,1.513,0,0,0-23.2-1.428l-1.449-11.781a1.485,1.485,0,0,0-1.365-1.365h-.315a1.318,1.318,0,0,0-1.386.924Zm15.393-8a1.5,1.5,0,0,0-1.533-1.428,1.554,1.554,0,0,0-1.533,1.428V-1.323A1.539,1.539,0,0,0-17.85.105a1.5,1.5,0,0,0,1.533-1.428Zm7.392,1.386h2.6c2.31,0,3.465,2.163,3.465,4.557,0,2.373-1.155,4.515-3.465,4.515h-2.6ZM-6.321,0C-2.163,0,.21-3.108.21-7.2c0-4.116-2.373-7.266-6.531-7.266h-4.452a1.214,1.214,0,0,0-1.218,1.3V-1.3A1.213,1.213,0,0,0-10.773,0ZM6.93-11.76h2.6C11.844-11.76,13-9.6,13-7.2c0,2.373-1.155,4.515-3.465,4.515H6.93ZM9.534,0c4.158,0,6.531-3.108,6.531-7.2,0-4.116-2.373-7.266-6.531-7.266H5.082a1.214,1.214,0,0,0-1.218,1.3V-1.3A1.213,1.213,0,0,0,5.082,0Zm13.23-13.146a1.5,1.5,0,0,0-1.533-1.428A1.554,1.554,0,0,0,19.7-13.146V-1.3A1.2,1.2,0,0,0,20.916,0h6.027A1.369,1.369,0,0,0,28.2-1.344a1.311,1.311,0,0,0-1.26-1.344H22.764Zm9.618-1.323a1.214,1.214,0,0,0-1.218,1.3V-1.3A1.214,1.214,0,0,0,32.382,0h6.867a1.354,1.354,0,0,0,1.26-1.344,1.311,1.311,0,0,0-1.26-1.344H34.23V-5.8h4.179a1.334,1.334,0,0,0,1.26-1.323,1.292,1.292,0,0,0-1.26-1.323H34.23V-11.76h4.83A1.354,1.354,0,0,0,40.32-13.1a1.316,1.316,0,0,0-1.26-1.365Z" transform="translate(255 1032)" fill="#444"/>
  </g>
</svg>
