<svg xmlns="http://www.w3.org/2000/svg" width="114" height="114" viewBox="0 0 114 114">
  <g id="vertical-align-bottom" transform="translate(-348 -930)">
    <rect id="box" width="114" height="114" transform="translate(348 930)" fill="#fff"/>
    <g id="icon" transform="translate(0 -13)">
      <rect id="Rectangle_48" data-name="Rectangle 48" width="64" height="2" transform="translate(373 1012)" fill="#2271b1"/>
      <g id="Rectangle_49" data-name="Rectangle 49" transform="translate(381 960)" fill="none" stroke="#2271b1" stroke-width="4">
        <rect width="20" height="48" rx="6" stroke="none"/>
        <rect x="2" y="2" width="16" height="44" rx="4" fill="none"/>
      </g>
      <g id="Rectangle_50" data-name="Rectangle 50" transform="translate(409 976)" fill="none" stroke="#2271b1" stroke-width="4">
        <rect width="20" height="32" rx="6" stroke="none"/>
        <rect x="2" y="2" width="16" height="28" rx="4" fill="none"/>
      </g>
    </g>
    <path id="_4_12" data-name="4/12" d="M-38.8,0a4.364,4.364,0,0,0,4.62-4.431,3.514,3.514,0,0,0-2.73-3.3,2.856,2.856,0,0,0,1.974-2.709c0-2.478-1.68-4.032-4.284-4.032H-43.8a1.214,1.214,0,0,0-1.218,1.3V-1.3A1.213,1.213,0,0,0-43.8,0Zm-3.129-8.694V-11.76h2.394c.9,0,1.365.63,1.365,1.533a1.4,1.4,0,0,1-1.344,1.533Zm2.9,2.436a1.641,1.641,0,0,1,1.617,1.743,1.662,1.662,0,0,1-1.554,1.806h-2.961V-6.258ZM-28.34-7.2a4.322,4.322,0,0,1,4.263-4.452A4.339,4.339,0,0,1-19.793-7.2a4.3,4.3,0,0,1-4.284,4.41A4.286,4.286,0,0,1-28.34-7.2Zm-3.066,0A7.336,7.336,0,0,0-24.077.189,7.34,7.34,0,0,0-16.727-7.2a7.35,7.35,0,0,0-7.35-7.434A7.345,7.345,0,0,0-31.406-7.2ZM-5.071-11.76A1.37,1.37,0,0,0-3.811-13.1a1.316,1.316,0,0,0-1.26-1.365h-8.61a1.316,1.316,0,0,0-1.26,1.365,1.37,1.37,0,0,0,1.26,1.344h2.772V-1.323A1.539,1.539,0,0,0-9.377.105,1.5,1.5,0,0,0-7.843-1.323V-11.76Zm12.768,0A1.37,1.37,0,0,0,8.957-13.1,1.316,1.316,0,0,0,7.7-14.469H-.913A1.316,1.316,0,0,0-2.173-13.1,1.37,1.37,0,0,0-.913-11.76H1.859V-1.323A1.539,1.539,0,0,0,3.392.105,1.5,1.5,0,0,0,4.925-1.323V-11.76ZM13.829-7.2a4.322,4.322,0,0,1,4.263-4.452A4.339,4.339,0,0,1,22.376-7.2a4.3,4.3,0,0,1-4.284,4.41A4.286,4.286,0,0,1,13.829-7.2Zm-3.066,0A7.336,7.336,0,0,0,18.092.189,7.34,7.34,0,0,0,25.442-7.2a7.35,7.35,0,0,0-7.35-7.434A7.345,7.345,0,0,0,10.763-7.2Zm26.25,2.058-3.99-8.505a1.3,1.3,0,0,0-1.386-.924h-.315a1.485,1.485,0,0,0-1.365,1.365L28.508-1.428A1.5,1.5,0,0,0,29.915.105a1.518,1.518,0,0,0,1.638-1.3l.882-7.476,2.9,5.943a1.907,1.907,0,0,0,1.68,1.281,1.936,1.936,0,0,0,1.7-1.281L41.59-8.673,42.473-1.2a1.518,1.518,0,0,0,1.638,1.3,1.513,1.513,0,0,0,1.407-1.533L44.069-13.209A1.485,1.485,0,0,0,42.7-14.574h-.315A1.318,1.318,0,0,0,41-13.65Z" transform="translate(405 1032)" fill="#444"/>
  </g>
</svg>
